<svg xmlns="http://www.w3.org/2000/svg" width="29.811" height="27.944" viewBox="0 0 29.811 27.944"><g id="camera" transform="translate(0 0)"><path id="_-Color" data-name="🎨-Color" d="M20.571,2.5a2.8,2.8,0,0,1,2.371,1.315l1.889,3.028h2.942a4.037,4.037,0,0,1,4.037,4.037V26.41a4.037,4.037,0,0,1-4.037,4.037H6.037A4.037,4.037,0,0,1,2,26.41V10.884A4.037,4.037,0,0,1,6.037,6.847h3.19l1.717-2.954A2.8,2.8,0,0,1,13.361,2.5Zm0,1.863h-7.21a.932.932,0,0,0-.726.347l-.08.116L10.569,8.247a.932.932,0,0,1-.805.463H6.037a2.174,2.174,0,0,0-2.174,2.174V26.41a2.174,2.174,0,0,0,2.174,2.174H27.774a2.174,2.174,0,0,0,2.174-2.174V10.884A2.174,2.174,0,0,0,27.774,8.71H24.315a.932.932,0,0,1-.79-.438L21.361,4.8A.932.932,0,0,0,20.571,4.366ZM16.905,11.2a6.832,6.832,0,1,1-6.832,6.832A6.832,6.832,0,0,1,16.905,11.2Zm0,1.863a4.968,4.968,0,1,0,4.968,4.968A4.969,4.969,0,0,0,16.905,13.059Z" transform="translate(-2 -2.503)" fill="#fff"/></g></svg>