<svg xmlns="http://www.w3.org/2000/svg" width="38.997" height="35.757" viewBox="0 0 38.997 35.757"><g id="Group_71" data-name="Group 71" transform="translate(-1176.058 -932.716)"><path id="Path_109" data-name="Path 109" d="M1272.14,936.241v18.976a.327.327,0,0,0-.059.092,4.049,4.049,0,0,1-4.219,3.413q-12,0-24,0a4.069,4.069,0,0,1-4.239-4.214q-.013-8.782.007-17.565a4.866,4.866,0,0,1,.234-1.494,4.023,4.023,0,0,1,4.018-2.732q11.755,0,23.509,0c.279,0,.559,0,.838.008a4.024,4.024,0,0,1,3.695,2.758C1272,935.731,1272.067,935.988,1272.14,936.241Zm-18.8,13.372c.123-.142.214-.245.3-.351q2.817-3.379,5.634-6.758a2.854,2.854,0,0,1,4.622-.013q2.307,2.688,4.61,5.379c.1.116.2.227.355.394.011-.161.02-.223.02-.285q0-5.543,0-11.085c0-.657-.31-.938-1.016-.938q-11.98,0-23.961,0c-.74,0-1.028.3-1.028,1.045q0,7.352,0,14.7v.4c.152-.142.245-.223.331-.31q2.008-2.006,4.015-4.013a2.856,2.856,0,0,1,4.313-.005C1252.136,948.374,1252.724,948.988,1253.337,949.614Z" transform="translate(-57.085)" fill="#fff"/><path id="Path_110" data-name="Path 110" d="M1209.8,1063.176c-.55,1.732-1.029,3.43-1.631,5.083a3.561,3.561,0,0,1-4.314,2.1q-7.223-1.916-14.439-3.859-5.217-1.4-10.434-2.791a3.69,3.69,0,0,1-2.73-4.87q1.829-6.122,3.665-12.241a.578.578,0,0,1,.173-.3v.4c0,3.416-.027,6.833.009,10.248a6.141,6.141,0,0,0,6.25,6.241q6.344-.007,12.687,0H1209.8Z" transform="translate(0 -102.014)" fill="#fff"/><path id="Path_111" data-name="Path 111" d="M1290.815,980.655a3.246,3.246,0,1,1-3.24,3.249A3.25,3.25,0,0,1,1290.815,980.655Z" transform="translate(-100.163 -43.058)" fill="#fff"/></g></svg>