<svg xmlns="http://www.w3.org/2000/svg" width="26.502" height="21.202" viewBox="0 0 26.502 21.202"><path id="email-icon" d="M24.527,4H5.975A3.975,3.975,0,0,0,2,7.975V21.226A3.975,3.975,0,0,0,5.975,25.2H24.527A3.975,3.975,0,0,0,28.5,21.226V7.975A3.975,3.975,0,0,0,24.527,4Zm-.543,2.65-7.792,7.792a1.325,1.325,0,0,1-1.882,0L6.519,6.65Zm1.868,14.576a1.325,1.325,0,0,1-1.325,1.325H5.975A1.325,1.325,0,0,1,4.65,21.226V8.519l7.792,7.792a3.975,3.975,0,0,0,5.618,0l7.792-7.792Z" transform="translate(-2 -4)"/></svg>