<svg xmlns="http://www.w3.org/2000/svg" width="31.447" height="31.447" viewBox="0 0 31.447 31.447"><path id="instagram" d="M17.724,13.824a3.9,3.9,0,1,0,3.9,3.9A3.9,3.9,0,0,0,17.724,13.824ZM33.337,9.972a10.267,10.267,0,0,0-.66-3.554A6.289,6.289,0,0,0,29.029,2.77a10.268,10.268,0,0,0-3.554-.66C23.447,2,22.849,2,17.724,2S12,2,9.972,2.11a10.268,10.268,0,0,0-3.554.66A6.289,6.289,0,0,0,2.77,6.418a10.268,10.268,0,0,0-.66,3.554C2,12,2,12.6,2,17.724s0,5.723.11,7.752a10.786,10.786,0,0,0,.66,3.569,6.2,6.2,0,0,0,1.431,2.2,6.116,6.116,0,0,0,2.217,1.431,10.267,10.267,0,0,0,3.554.66c2.028.11,2.626.11,7.752.11s5.723,0,7.752-.11a10.267,10.267,0,0,0,3.554-.66,6.116,6.116,0,0,0,2.217-1.431,6.2,6.2,0,0,0,1.431-2.2,10.378,10.378,0,0,0,.66-3.569c.11-2.028.11-2.626.11-7.752s0-5.723-.11-7.752ZM29.343,22.551a9.009,9.009,0,0,1-.613,2.83,6.069,6.069,0,0,1-3.349,3.349,9.009,9.009,0,0,1-2.846.55H12.912a9.01,9.01,0,0,1-2.846-.55,5.853,5.853,0,0,1-3.349-3.349,8.632,8.632,0,0,1-.535-2.846c0-1.242,0-1.572,0-4.811V12.912a8.632,8.632,0,0,1,.535-2.846,5.519,5.519,0,0,1,1.352-2.06,5.645,5.645,0,0,1,2-1.289,9.01,9.01,0,0,1,2.846-.55h9.623a9.01,9.01,0,0,1,2.846.55,5.853,5.853,0,0,1,3.349,3.349,9.01,9.01,0,0,1,.55,2.846c0,1.242,0,1.572,0,4.811s.11,3.569.063,4.811Zm-2.516-11.7A3.742,3.742,0,0,0,24.61,8.635a6.289,6.289,0,0,0-2.17-.346H13.007a6.289,6.289,0,0,0-2.17.409A3.742,3.742,0,0,0,8.62,10.837a6.714,6.714,0,0,0-.33,2.17v9.434A6.714,6.714,0,0,0,8.7,24.61a3.742,3.742,0,0,0,2.217,2.217,6.714,6.714,0,0,0,2.091.409h9.434a6.289,6.289,0,0,0,2.17-.409,3.742,3.742,0,0,0,2.217-2.217,6.289,6.289,0,0,0,.409-2.17V13.007a5.944,5.944,0,0,0-.409-2.17Zm-9.1,12.878a5.991,5.991,0,0,1-5.991-6.006h0a6.006,6.006,0,1,1,5.991,6.006ZM24.013,12.9a1.415,1.415,0,0,1,0-2.815h0a1.415,1.415,0,0,1,0,2.815Z" transform="translate(-2 -2)"/></svg>