<svg id="link-icon" xmlns="http://www.w3.org/2000/svg" width="20.921" height="20.92" viewBox="0 0 20.921 20.92"><path id="Path_55" data-name="Path 55" d="M140.348,1.688l-.728-.644a4.106,4.106,0,0,0-5.795.348l-2.083,2.351a1.288,1.288,0,0,0,.109,1.816l.2.174a1.286,1.286,0,0,0,1.817-.109l2.083-2.35a1.273,1.273,0,0,1,1.794-.108l.727.645a1.271,1.271,0,0,1,.108,1.794l-4.556,5.139a1.269,1.269,0,0,1-1.534.286,1.39,1.39,0,0,0-1.68.313l-.036.04a1.392,1.392,0,0,0,.4,2.156,4.1,4.1,0,0,0,4.974-.915L140.7,7.484A4.111,4.111,0,0,0,140.348,1.688Z" transform="translate(-120.807 -0.011)" fill="#1b1b1b"/><path id="Path_56" data-name="Path 56" d="M9.878,102.408l-.2-.174a1.288,1.288,0,0,0-1.816.11l-2.083,2.35a1.273,1.273,0,0,1-1.793.109l-.728-.646a1.27,1.27,0,0,1-.108-1.793l4.556-5.139a1.273,1.273,0,0,1,1.511-.3,1.465,1.465,0,0,0,1.739-.343l.016-.018a1.371,1.371,0,0,0-.379-2.118,4.09,4.09,0,0,0-5.008.9l-4.556,5.138h0a4.11,4.11,0,0,0,.348,5.8l.728.645a4.111,4.111,0,0,0,5.8-.349l2.083-2.35A1.286,1.286,0,0,0,9.878,102.408Z" transform="translate(-0.001 -87.035)" fill="#1b1b1b"/></svg>