<svg xmlns="http://www.w3.org/2000/svg" width="31" height="31.187" viewBox="0 0 31 31.187"><path id="linkedin" d="M30.767,2H4.352A2.261,2.261,0,0,0,2.06,4.23V30.957a2.261,2.261,0,0,0,2.292,2.23H30.767a2.261,2.261,0,0,0,2.292-2.23V4.23A2.261,2.261,0,0,0,30.767,2Zm-19.3,26.1H6.785V14.069h4.678Zm-2.339-16h0a2.433,2.433,0,1,1,0-4.865,2.448,2.448,0,1,1,0,4.865Zm19.211,16H23.657V20.572c0-1.887-.671-3.119-2.37-3.119a2.573,2.573,0,0,0-2.4,1.7,3.119,3.119,0,0,0-.156,1.138v7.8H14.051V14.054h4.678v1.98A4.678,4.678,0,0,1,22.955,13.7c3.119,0,5.38,2.012,5.38,6.331Z" transform="translate(-2.06 -2)"/></svg>