<svg id="logout-icon" xmlns="http://www.w3.org/2000/svg" width="64.98" height="65" viewBox="0 0 64.98 65"><path id="Path_102" data-name="Path 102" d="M825.841,755.055h-1.65c-.44-.136-.882-.264-1.319-.41q-7.661-2.559-15.321-5.122a5.481,5.481,0,0,1-4.174-5.773q0-23.9,0-47.792c0-.254,0-.508.009-.761a5.444,5.444,0,0,1,5.3-5.13q7.423.006,14.846,0c5.077,0,10.153-.025,15.23.012a8.013,8.013,0,0,1,7.866,7.346c.125,3.02.045,6.049.036,9.074a2.4,2.4,0,0,1-.981,1.912,2.57,2.57,0,0,1-2.8.362,2.5,2.5,0,0,1-1.585-2.4c-.019-2.6-.006-5.2-.011-7.807a2.747,2.747,0,0,0-3.037-3.076q-5.648-.006-11.3,0c-.183,0-.365.016-.57.026.044.065.057.111.085.123,2.966,1.261,3.967,2.773,3.967,5.995V741.5h.8q3.458,0,6.917,0c2.1,0,3.134-1.044,3.135-3.17,0-3.343,0-6.685.005-10.028a4.192,4.192,0,0,1,.1-1.068,2.684,2.684,0,0,1,2.832-1.96,2.632,2.632,0,0,1,2.444,2.621q.04,5.427.007,10.853a8.084,8.084,0,0,1-8.232,8.178c-2.433.008-4.865,0-7.3,0h-.721c0,1.048.027,2-.006,2.945a4.919,4.919,0,0,1-2.142,4.052A14.914,14.914,0,0,1,825.841,755.055Z" transform="translate(-803.377 -690.055)" fill="#7239d6"/><path id="Path_103" data-name="Path 103" d="M906.564,732.436a17.589,17.589,0,0,1-1.49,2c-3.3,3.345-6.631,6.65-9.946,9.975a2.784,2.784,0,0,1-2.568.927,2.687,2.687,0,0,1-2.237-2.754c-.011-2.411,0-4.823,0-7.234v-.786h-.768c-3.278,0-6.556.006-9.834,0a2.726,2.726,0,0,1-2.871-2.176,2.684,2.684,0,0,1,2.729-3.244c3.32-.012,6.641,0,9.961,0h.782v-.7c0-2.39.01-4.781,0-7.171a2.735,2.735,0,0,1,4.791-2.006c3.509,3.52,7.036,7.023,10.528,10.56a7.956,7.956,0,0,1,.93,1.476Z" transform="translate(-841.585 -704.756)" fill="#7239d6"/></svg>