<svg xmlns="http://www.w3.org/2000/svg" width="18.294" height="18.294" viewBox="0 0 18.294 18.294"><path id="Path_80" data-name="Path 80" d="M11.147,8.878a2.268,2.268,0,1,0,2.268,2.268A2.268,2.268,0,0,0,11.147,8.878ZM20.23,6.637a5.973,5.973,0,0,0-.384-2.067,3.659,3.659,0,0,0-2.122-2.122,5.973,5.973,0,0,0-2.067-.384C14.476,2,14.129,2,11.147,2s-3.329,0-4.509.064a5.973,5.973,0,0,0-2.067.384A3.659,3.659,0,0,0,2.448,4.57a5.973,5.973,0,0,0-.384,2.067C2,7.817,2,8.165,2,11.147s0,3.329.064,4.509a6.275,6.275,0,0,0,.384,2.076,3.6,3.6,0,0,0,.832,1.281,3.558,3.558,0,0,0,1.29.832,5.973,5.973,0,0,0,2.067.384c1.18.064,1.528.064,4.509.064s3.329,0,4.509-.064a5.973,5.973,0,0,0,2.067-.384,3.558,3.558,0,0,0,1.29-.832,3.6,3.6,0,0,0,.832-1.281,6.037,6.037,0,0,0,.384-2.076c.064-1.18.064-1.528.064-4.509s0-3.329-.064-4.509Zm-2.323,7.317A5.241,5.241,0,0,1,17.55,15.6,3.531,3.531,0,0,1,15.6,17.55a5.241,5.241,0,0,1-1.656.32h-5.6a5.241,5.241,0,0,1-1.656-.32A3.4,3.4,0,0,1,4.744,15.6a5.022,5.022,0,0,1-.311-1.656c0-.723,0-.915,0-2.8v-2.8a5.022,5.022,0,0,1,.311-1.656,3.211,3.211,0,0,1,.787-1.2,3.284,3.284,0,0,1,1.162-.75,5.241,5.241,0,0,1,1.656-.32h5.6a5.241,5.241,0,0,1,1.656.32A3.4,3.4,0,0,1,17.55,6.692a5.241,5.241,0,0,1,.32,1.656c0,.723,0,.915,0,2.8s.064,2.076.037,2.8ZM16.443,7.15a2.177,2.177,0,0,0-1.29-1.29,3.659,3.659,0,0,0-1.262-.2H8.4A3.659,3.659,0,0,0,7.141,5.9a2.177,2.177,0,0,0-1.29,1.244A3.906,3.906,0,0,0,5.659,8.4v5.488A3.906,3.906,0,0,0,5.9,15.153a2.177,2.177,0,0,0,1.29,1.29,3.906,3.906,0,0,0,1.217.238h5.488a3.659,3.659,0,0,0,1.262-.238,2.177,2.177,0,0,0,1.29-1.29,3.659,3.659,0,0,0,.238-1.262V8.4a3.458,3.458,0,0,0-.238-1.262Zm-5.3,7.491a3.485,3.485,0,0,1-3.485-3.494h0a3.494,3.494,0,1,1,3.485,3.494Zm3.659-6.3a.823.823,0,0,1,0-1.637h0a.823.823,0,0,1,0,1.637Z" transform="translate(-2 -2)" fill="#281f39"/></svg>