<svg xmlns="http://www.w3.org/2000/svg" width="18.033" height="18.142" viewBox="0 0 18.033 18.142"><path id="Path_79" data-name="Path 79" d="M18.76,2H3.393A1.315,1.315,0,0,0,2.06,3.3V18.845a1.315,1.315,0,0,0,1.333,1.3H18.76a1.315,1.315,0,0,0,1.333-1.3V3.3A1.315,1.315,0,0,0,18.76,2ZM7.53,17.185H4.809V9.021H7.53ZM6.169,7.878h0a1.415,1.415,0,1,1,0-2.83,1.424,1.424,0,1,1,0,2.83Zm11.176,9.307H14.623V12.8c0-1.1-.39-1.814-1.379-1.814a1.5,1.5,0,0,0-1.4.989,1.814,1.814,0,0,0-.091.662v4.536H9.036V9.012h2.721v1.152A2.721,2.721,0,0,1,14.215,8.8c1.814,0,3.13,1.17,3.13,3.683Z" transform="translate(-2.06 -2)" fill="#281f39"/></svg>