<svg xmlns="http://www.w3.org/2000/svg" width="36.794" height="29.953" viewBox="0 0 36.794 29.953"><path id="twitter" d="M38.794,7.438a15.619,15.619,0,0,1-4.342,1.177,7.6,7.6,0,0,0,3.33-4.176,15.1,15.1,0,0,1-4.8,1.84A7.543,7.543,0,0,0,20.1,13.159,21.414,21.414,0,0,1,4.557,5.267,7.653,7.653,0,0,0,3.545,9.075a7.524,7.524,0,0,0,3.348,6.273,7.451,7.451,0,0,1-3.422-.938V14.5a7.543,7.543,0,0,0,6.071,7.359,7.23,7.23,0,0,1-2.024.313A9.014,9.014,0,0,1,6.1,22.045a7.561,7.561,0,0,0,7.046,5.225A15.122,15.122,0,0,1,3.84,30.508,14.589,14.589,0,0,1,2,30.4a21.285,21.285,0,0,0,11.572,3.4A21.322,21.322,0,0,0,35.114,12.313v-.975a15.509,15.509,0,0,0,3.679-3.9Z" transform="translate(-2 -3.849)"/></svg>